<mxfile host="app.diagrams.net" agent="Mozilla/5.0 (Windows NT 10.0; Win64; x64) AppleWebKit/537.36 (KHTML, like Gecko) Chrome/129.0.0.0 Safari/537.36" version="24.7.17">
  <diagram id="R2lEEEUBdFMjLlhIrx00" name="Page-1">
    <mxGraphModel dx="1434" dy="1918" grid="1" gridSize="10" guides="1" tooltips="1" connect="1" arrows="1" fold="1" page="1" pageScale="1" pageWidth="850" pageHeight="1100" math="0" shadow="0" extFonts="Permanent Marker^https://fonts.googleapis.com/css?family=Permanent+Marker">
      <root>
        <mxCell id="0" />
        <mxCell id="1" parent="0" />
        <mxCell id="4cfJmhRzj1_fSDuI-FN--31" value="Usuário" style="swimlane;childLayout=stackLayout;horizontal=1;startSize=50;horizontalStack=0;rounded=1;fontSize=14;fontStyle=0;strokeWidth=2;resizeParent=0;resizeLast=1;shadow=0;dashed=0;align=center;arcSize=4;whiteSpace=wrap;html=1;" parent="1" vertex="1">
          <mxGeometry x="50" y="240" width="160" height="140" as="geometry" />
        </mxCell>
        <mxCell id="4cfJmhRzj1_fSDuI-FN--32" value="+ID&lt;br&gt;+Nome&amp;nbsp;&lt;br&gt;+Senha&lt;div&gt;+ID_Cargo&lt;/div&gt;&lt;div&gt;+Email&lt;/div&gt;" style="align=left;strokeColor=none;fillColor=none;spacingLeft=4;fontSize=12;verticalAlign=top;resizable=0;rotatable=0;part=1;html=1;" parent="4cfJmhRzj1_fSDuI-FN--31" vertex="1">
          <mxGeometry y="50" width="160" height="90" as="geometry" />
        </mxCell>
        <mxCell id="4cfJmhRzj1_fSDuI-FN--33" value="Android" style="swimlane;childLayout=stackLayout;horizontal=1;startSize=50;horizontalStack=0;rounded=1;fontSize=14;fontStyle=0;strokeWidth=2;resizeParent=0;resizeLast=1;shadow=0;dashed=0;align=center;arcSize=4;whiteSpace=wrap;html=1;" parent="1" vertex="1">
          <mxGeometry x="330" y="70" width="160" height="180" as="geometry" />
        </mxCell>
        <mxCell id="4cfJmhRzj1_fSDuI-FN--34" value="+ID&lt;br&gt;+ID_Modelo&lt;div&gt;+ID_Usuario&lt;/div&gt;&lt;div&gt;+ID_Versão&lt;/div&gt;&lt;div&gt;+ID_Chipset&lt;br&gt;+NS&lt;div&gt;+Estado&lt;/div&gt;&lt;div&gt;+IMEI&lt;/div&gt;&lt;/div&gt;" style="align=left;strokeColor=none;fillColor=none;spacingLeft=4;fontSize=12;verticalAlign=top;resizable=0;rotatable=0;part=1;html=1;" parent="4cfJmhRzj1_fSDuI-FN--33" vertex="1">
          <mxGeometry y="50" width="160" height="130" as="geometry" />
        </mxCell>
        <mxCell id="4cfJmhRzj1_fSDuI-FN--35" value="Modelos_Android" style="swimlane;childLayout=stackLayout;horizontal=1;startSize=50;horizontalStack=0;rounded=1;fontSize=14;fontStyle=0;strokeWidth=2;resizeParent=0;resizeLast=1;shadow=0;dashed=0;align=center;arcSize=4;whiteSpace=wrap;html=1;" parent="1" vertex="1">
          <mxGeometry x="620" y="10" width="160" height="100" as="geometry" />
        </mxCell>
        <mxCell id="4cfJmhRzj1_fSDuI-FN--36" value="+ID&lt;br&gt;+Modelo&lt;br&gt;&lt;div&gt;&lt;br&gt;&lt;/div&gt;" style="align=left;strokeColor=none;fillColor=none;spacingLeft=4;fontSize=12;verticalAlign=top;resizable=0;rotatable=0;part=1;html=1;" parent="4cfJmhRzj1_fSDuI-FN--35" vertex="1">
          <mxGeometry y="50" width="160" height="50" as="geometry" />
        </mxCell>
        <mxCell id="4cfJmhRzj1_fSDuI-FN--38" style="edgeStyle=orthogonalEdgeStyle;rounded=0;orthogonalLoop=1;jettySize=auto;html=1;endArrow=ERzeroToMany;endFill=0;entryX=-0.012;entryY=0.308;entryDx=0;entryDy=0;entryPerimeter=0;" parent="1" target="4cfJmhRzj1_fSDuI-FN--34" edge="1">
          <mxGeometry relative="1" as="geometry">
            <mxPoint x="212" y="300" as="sourcePoint" />
            <mxPoint x="329.5" y="260" as="targetPoint" />
            <Array as="points">
              <mxPoint x="212" y="301" />
              <mxPoint x="280" y="301" />
              <mxPoint x="280" y="161" />
            </Array>
          </mxGeometry>
        </mxCell>
        <mxCell id="4cfJmhRzj1_fSDuI-FN--39" value="POS" style="swimlane;childLayout=stackLayout;horizontal=1;startSize=50;horizontalStack=0;rounded=1;fontSize=14;fontStyle=0;strokeWidth=2;resizeParent=0;resizeLast=1;shadow=0;dashed=0;align=center;arcSize=4;whiteSpace=wrap;html=1;" parent="1" vertex="1">
          <mxGeometry x="340" y="400" width="160" height="180" as="geometry" />
        </mxCell>
        <mxCell id="4cfJmhRzj1_fSDuI-FN--40" value="+ID&lt;br&gt;+ID_Modelo&lt;div&gt;+ID_Usuario&lt;br&gt;+NS&lt;div&gt;+Estado&lt;/div&gt;&lt;div&gt;+ID_Memória_RAM&lt;/div&gt;&lt;div&gt;+Versão_HW&lt;/div&gt;&lt;div&gt;+Modelo_Tela&lt;/div&gt;&lt;div&gt;&lt;br&gt;&lt;/div&gt;&lt;/div&gt;" style="align=left;strokeColor=none;fillColor=none;spacingLeft=4;fontSize=12;verticalAlign=top;resizable=0;rotatable=0;part=1;html=1;" parent="4cfJmhRzj1_fSDuI-FN--39" vertex="1">
          <mxGeometry y="50" width="160" height="130" as="geometry" />
        </mxCell>
        <mxCell id="4cfJmhRzj1_fSDuI-FN--41" value="Modelos_POS" style="swimlane;childLayout=stackLayout;horizontal=1;startSize=50;horizontalStack=0;rounded=1;fontSize=14;fontStyle=0;strokeWidth=2;resizeParent=0;resizeLast=1;shadow=0;dashed=0;align=center;arcSize=4;whiteSpace=wrap;html=1;" parent="1" vertex="1">
          <mxGeometry x="620" y="320" width="160" height="100" as="geometry" />
        </mxCell>
        <mxCell id="4cfJmhRzj1_fSDuI-FN--42" value="+ID&lt;br&gt;+Modelo&lt;br&gt;&lt;div&gt;&lt;br&gt;&lt;/div&gt;" style="align=left;strokeColor=none;fillColor=none;spacingLeft=4;fontSize=12;verticalAlign=top;resizable=0;rotatable=0;part=1;html=1;" parent="4cfJmhRzj1_fSDuI-FN--41" vertex="1">
          <mxGeometry y="50" width="160" height="50" as="geometry" />
        </mxCell>
        <mxCell id="4cfJmhRzj1_fSDuI-FN--47" style="edgeStyle=orthogonalEdgeStyle;rounded=0;orthogonalLoop=1;jettySize=auto;html=1;entryX=-0.012;entryY=0.358;entryDx=0;entryDy=0;entryPerimeter=0;endArrow=ERzeroToMany;endFill=0;" parent="1" target="4cfJmhRzj1_fSDuI-FN--40" edge="1">
          <mxGeometry relative="1" as="geometry">
            <mxPoint x="210" y="301" as="sourcePoint" />
            <Array as="points">
              <mxPoint x="280" y="301" />
              <mxPoint x="280" y="497" />
            </Array>
          </mxGeometry>
        </mxCell>
        <mxCell id="4cfJmhRzj1_fSDuI-FN--48" value="Cargos" style="swimlane;childLayout=stackLayout;horizontal=1;startSize=50;horizontalStack=0;rounded=1;fontSize=14;fontStyle=0;strokeWidth=2;resizeParent=0;resizeLast=1;shadow=0;dashed=0;align=center;arcSize=4;whiteSpace=wrap;html=1;" parent="1" vertex="1">
          <mxGeometry x="50" y="480" width="160" height="100" as="geometry" />
        </mxCell>
        <mxCell id="4cfJmhRzj1_fSDuI-FN--49" value="+ID&lt;br&gt;+Cargo&lt;br&gt;&lt;div&gt;&lt;br&gt;&lt;/div&gt;" style="align=left;strokeColor=none;fillColor=none;spacingLeft=4;fontSize=12;verticalAlign=top;resizable=0;rotatable=0;part=1;html=1;" parent="4cfJmhRzj1_fSDuI-FN--48" vertex="1">
          <mxGeometry y="50" width="160" height="50" as="geometry" />
        </mxCell>
        <mxCell id="4cfJmhRzj1_fSDuI-FN--50" style="edgeStyle=orthogonalEdgeStyle;rounded=0;orthogonalLoop=1;jettySize=auto;html=1;entryX=0;entryY=0.75;entryDx=0;entryDy=0;endArrow=ERmandOne;endFill=0;" parent="1" source="4cfJmhRzj1_fSDuI-FN--49" target="4cfJmhRzj1_fSDuI-FN--31" edge="1">
          <mxGeometry relative="1" as="geometry">
            <Array as="points">
              <mxPoint x="30" y="555" />
              <mxPoint x="30" y="345" />
            </Array>
          </mxGeometry>
        </mxCell>
        <mxCell id="4cfJmhRzj1_fSDuI-FN--51" value="Versão_SO" style="swimlane;childLayout=stackLayout;horizontal=1;startSize=50;horizontalStack=0;rounded=1;fontSize=14;fontStyle=0;strokeWidth=2;resizeParent=0;resizeLast=1;shadow=0;dashed=0;align=center;arcSize=4;whiteSpace=wrap;html=1;" parent="1" vertex="1">
          <mxGeometry x="620" y="-130" width="160" height="100" as="geometry" />
        </mxCell>
        <mxCell id="4cfJmhRzj1_fSDuI-FN--52" value="+ID&lt;br&gt;+Versão_SO&lt;br&gt;&lt;div&gt;&lt;br&gt;&lt;/div&gt;" style="align=left;strokeColor=none;fillColor=none;spacingLeft=4;fontSize=12;verticalAlign=top;resizable=0;rotatable=0;part=1;html=1;" parent="4cfJmhRzj1_fSDuI-FN--51" vertex="1">
          <mxGeometry y="50" width="160" height="50" as="geometry" />
        </mxCell>
        <mxCell id="4cfJmhRzj1_fSDuI-FN--57" value="Chipset_Android" style="swimlane;childLayout=stackLayout;horizontal=1;startSize=50;horizontalStack=0;rounded=1;fontSize=14;fontStyle=0;strokeWidth=2;resizeParent=0;resizeLast=1;shadow=0;dashed=0;align=center;arcSize=4;whiteSpace=wrap;html=1;" parent="1" vertex="1">
          <mxGeometry x="620" y="130" width="160" height="100" as="geometry" />
        </mxCell>
        <mxCell id="4cfJmhRzj1_fSDuI-FN--58" value="+ID&lt;br&gt;+Chipset&lt;br&gt;&lt;div&gt;&lt;br&gt;&lt;/div&gt;" style="align=left;strokeColor=none;fillColor=none;spacingLeft=4;fontSize=12;verticalAlign=top;resizable=0;rotatable=0;part=1;html=1;" parent="4cfJmhRzj1_fSDuI-FN--57" vertex="1">
          <mxGeometry y="50" width="160" height="50" as="geometry" />
        </mxCell>
        <mxCell id="js4WBrMLpE6ak-lKdZrB-1" value="Armazenamento_RAM" style="swimlane;childLayout=stackLayout;horizontal=1;startSize=50;horizontalStack=0;rounded=1;fontSize=14;fontStyle=0;strokeWidth=2;resizeParent=0;resizeLast=1;shadow=0;dashed=0;align=center;arcSize=4;whiteSpace=wrap;html=1;" vertex="1" parent="1">
          <mxGeometry x="620" y="440" width="160" height="100" as="geometry" />
        </mxCell>
        <mxCell id="js4WBrMLpE6ak-lKdZrB-2" value="+ID&lt;br&gt;+Armazenamentos_RAMs&lt;br&gt;&lt;div&gt;&lt;br&gt;&lt;/div&gt;" style="align=left;strokeColor=none;fillColor=none;spacingLeft=4;fontSize=12;verticalAlign=top;resizable=0;rotatable=0;part=1;html=1;" vertex="1" parent="js4WBrMLpE6ak-lKdZrB-1">
          <mxGeometry y="50" width="160" height="50" as="geometry" />
        </mxCell>
        <mxCell id="js4WBrMLpE6ak-lKdZrB-17" style="edgeStyle=orthogonalEdgeStyle;rounded=0;orthogonalLoop=1;jettySize=auto;html=1;entryX=1;entryY=0.75;entryDx=0;entryDy=0;endArrow=ERmandOne;endFill=0;" edge="1" parent="1" source="js4WBrMLpE6ak-lKdZrB-4" target="4cfJmhRzj1_fSDuI-FN--40">
          <mxGeometry relative="1" as="geometry" />
        </mxCell>
        <mxCell id="js4WBrMLpE6ak-lKdZrB-4" value="Versões_HW" style="swimlane;childLayout=stackLayout;horizontal=1;startSize=50;horizontalStack=0;rounded=1;fontSize=14;fontStyle=0;strokeWidth=2;resizeParent=0;resizeLast=1;shadow=0;dashed=0;align=center;arcSize=4;whiteSpace=wrap;html=1;" vertex="1" parent="1">
          <mxGeometry x="620" y="560" width="160" height="100" as="geometry" />
        </mxCell>
        <mxCell id="js4WBrMLpE6ak-lKdZrB-5" value="+ID&lt;br&gt;+Versões_HW&lt;br&gt;&lt;div&gt;&lt;br&gt;&lt;/div&gt;" style="align=left;strokeColor=none;fillColor=none;spacingLeft=4;fontSize=12;verticalAlign=top;resizable=0;rotatable=0;part=1;html=1;" vertex="1" parent="js4WBrMLpE6ak-lKdZrB-4">
          <mxGeometry y="50" width="160" height="50" as="geometry" />
        </mxCell>
        <mxCell id="js4WBrMLpE6ak-lKdZrB-8" value="Modelos_Tela" style="swimlane;childLayout=stackLayout;horizontal=1;startSize=50;horizontalStack=0;rounded=1;fontSize=14;fontStyle=0;strokeWidth=2;resizeParent=0;resizeLast=1;shadow=0;dashed=0;align=center;arcSize=4;whiteSpace=wrap;html=1;" vertex="1" parent="1">
          <mxGeometry x="620" y="690" width="160" height="110" as="geometry" />
        </mxCell>
        <mxCell id="js4WBrMLpE6ak-lKdZrB-9" value="+ID&lt;br&gt;+ID_Modelo&lt;div&gt;+Modelo_Tela&lt;br&gt;&lt;div&gt;&lt;br&gt;&lt;/div&gt;&lt;/div&gt;" style="align=left;strokeColor=none;fillColor=none;spacingLeft=4;fontSize=12;verticalAlign=top;resizable=0;rotatable=0;part=1;html=1;" vertex="1" parent="js4WBrMLpE6ak-lKdZrB-8">
          <mxGeometry y="50" width="160" height="60" as="geometry" />
        </mxCell>
        <mxCell id="js4WBrMLpE6ak-lKdZrB-11" style="edgeStyle=orthogonalEdgeStyle;rounded=0;orthogonalLoop=1;jettySize=auto;html=1;entryX=0.994;entryY=0.454;entryDx=0;entryDy=0;entryPerimeter=0;endArrow=ERmandOne;endFill=0;" edge="1" parent="1" source="4cfJmhRzj1_fSDuI-FN--52" target="4cfJmhRzj1_fSDuI-FN--34">
          <mxGeometry relative="1" as="geometry">
            <Array as="points">
              <mxPoint x="560" y="-55" />
              <mxPoint x="560" y="179" />
            </Array>
          </mxGeometry>
        </mxCell>
        <mxCell id="js4WBrMLpE6ak-lKdZrB-12" style="edgeStyle=orthogonalEdgeStyle;rounded=0;orthogonalLoop=1;jettySize=auto;html=1;entryX=1;entryY=0.177;entryDx=0;entryDy=0;entryPerimeter=0;endArrow=ERmandOne;endFill=0;" edge="1" parent="1" source="4cfJmhRzj1_fSDuI-FN--36" target="4cfJmhRzj1_fSDuI-FN--34">
          <mxGeometry relative="1" as="geometry">
            <Array as="points">
              <mxPoint x="520" y="85" />
              <mxPoint x="520" y="143" />
            </Array>
          </mxGeometry>
        </mxCell>
        <mxCell id="js4WBrMLpE6ak-lKdZrB-14" style="edgeStyle=orthogonalEdgeStyle;rounded=0;orthogonalLoop=1;jettySize=auto;html=1;entryX=1.006;entryY=0.592;entryDx=0;entryDy=0;entryPerimeter=0;endArrow=ERmandOne;endFill=0;" edge="1" parent="1" source="4cfJmhRzj1_fSDuI-FN--58" target="4cfJmhRzj1_fSDuI-FN--34">
          <mxGeometry relative="1" as="geometry">
            <Array as="points">
              <mxPoint x="590" y="197" />
              <mxPoint x="590" y="197" />
            </Array>
          </mxGeometry>
        </mxCell>
        <mxCell id="js4WBrMLpE6ak-lKdZrB-15" style="edgeStyle=orthogonalEdgeStyle;rounded=0;orthogonalLoop=1;jettySize=auto;html=1;entryX=1.006;entryY=0.192;entryDx=0;entryDy=0;entryPerimeter=0;endArrow=ERmandOne;endFill=0;" edge="1" parent="1" source="4cfJmhRzj1_fSDuI-FN--41" target="4cfJmhRzj1_fSDuI-FN--40">
          <mxGeometry relative="1" as="geometry" />
        </mxCell>
        <mxCell id="js4WBrMLpE6ak-lKdZrB-16" style="edgeStyle=orthogonalEdgeStyle;rounded=0;orthogonalLoop=1;jettySize=auto;html=1;entryX=1;entryY=0.615;entryDx=0;entryDy=0;entryPerimeter=0;endArrow=ERmandOne;endFill=0;" edge="1" parent="1" source="js4WBrMLpE6ak-lKdZrB-1" target="4cfJmhRzj1_fSDuI-FN--40">
          <mxGeometry relative="1" as="geometry" />
        </mxCell>
        <mxCell id="js4WBrMLpE6ak-lKdZrB-18" style="edgeStyle=orthogonalEdgeStyle;rounded=0;orthogonalLoop=1;jettySize=auto;html=1;entryX=0.994;entryY=0.9;entryDx=0;entryDy=0;entryPerimeter=0;endArrow=ERmandOne;endFill=0;exitX=0;exitY=0.75;exitDx=0;exitDy=0;" edge="1" parent="1" source="js4WBrMLpE6ak-lKdZrB-9" target="4cfJmhRzj1_fSDuI-FN--40">
          <mxGeometry relative="1" as="geometry">
            <Array as="points">
              <mxPoint x="620" y="780" />
              <mxPoint x="520" y="780" />
              <mxPoint x="520" y="567" />
            </Array>
          </mxGeometry>
        </mxCell>
        <mxCell id="js4WBrMLpE6ak-lKdZrB-19" style="edgeStyle=orthogonalEdgeStyle;rounded=0;orthogonalLoop=1;jettySize=auto;html=1;entryX=1;entryY=0.5;entryDx=0;entryDy=0;endArrow=ERmandOne;endFill=0;" edge="1" parent="1" source="4cfJmhRzj1_fSDuI-FN--42" target="js4WBrMLpE6ak-lKdZrB-9">
          <mxGeometry relative="1" as="geometry">
            <Array as="points">
              <mxPoint x="800" y="395" />
              <mxPoint x="800" y="770" />
            </Array>
          </mxGeometry>
        </mxCell>
      </root>
    </mxGraphModel>
  </diagram>
</mxfile>
